<svg xmlns="http://www.w3.org/2000/svg" viewBox="0 0 490 440" width="490" height="440">
<defs><linearGradient id="g" x1="0" x2="1"><stop offset="0" stop-color="#E0457B"/><stop offset=".38" stop-color="#F2994A"/><stop offset=".58" stop-color="#F7F3EE"/><stop offset="1" stop-color="#3FC1E0"/></linearGradient></defs>
<style>.t{font:700 13.5px ui-monospace,SFMono-Regular,Menlo,Consolas,monospace;fill:url(#g)}.k{font:700 12.5px ui-monospace,SFMono-Regular,Menlo,Consolas,monospace;fill:#F2994A}.v{font:400 12.5px ui-monospace,SFMono-Regular,Menlo,Consolas,monospace;fill:#E6EDF3}.l{opacity:0;animation:in .5s ease-out forwards}@keyframes in{from{opacity:0;transform:translateX(-10px)}to{opacity:1;transform:none}}</style>
<rect x=".75" y=".75" width="488.5" height="438.5" rx="10" fill="#0d1117" stroke="#30363d" stroke-width="1.5"/>
<path d="M.75 36h488.5" stroke="#30363d" stroke-width="1.5"/>
<circle cx="22" cy="18.5" r="5.5" fill="#E0457B"/><circle cx="40" cy="18.5" r="5.5" fill="#F2994A"/><circle cx="58" cy="18.5" r="5.5" fill="#3FC1E0"/>
<text x="245.0" y="23" text-anchor="middle" class="v" style="fill:#8b949e">~ neofetch</text>
<g class="l" style="animation-delay:0.35s"><text x="26" y="78" class="t">espandity@github</text><rect x="26" y="87" width="120" height="1.5" fill="#30363d"/></g>
<g class="l" style="animation-delay:0.51s"><text x="26" y="112" class="k">Chi</text><text x="128" y="112" class="v">Espandity, agenzia di contenuti social</text></g>
<g class="l" style="animation-delay:0.67s"><text x="26" y="134" class="k">Fa</text><text x="128" y="134" class="v">caroselli, video e piani editoriali</text></g>
<g class="l" style="animation-delay:0.83s"><text x="128" y="156" class="v">con l'intelligenza artificiale</text></g>
<g class="l" style="animation-delay:0.99s"><text x="26" y="178" class="k">Ora</text><text x="128" y="178" class="v">una piattaforma che crea, controlla</text></g>
<g class="l" style="animation-delay:1.15s"><text x="128" y="200" class="v">e programma i post da sola</text></g>
<g class="l" style="animation-delay:1.31s"><text x="26" y="222" class="k">Strumenti</text><text x="128" y="222" class="v">Claude · OpenAI · Supabase</text></g>
<g class="l" style="animation-delay:1.47s"><text x="128" y="244" class="v">Railway · Lovable · Metricool</text></g>
<g class="l" style="animation-delay:1.63s"><text x="26" y="266" class="k">Social</text><text x="128" y="266" class="v">Instagram · Facebook · TikTok</text></g>
<g class="l" style="animation-delay:1.79s"><text x="128" y="288" class="v">Threads · LinkedIn · Pinterest</text></g>
<g class="l" style="animation-delay:1.95s"><text x="26" y="310" class="k">Mascotte</text><text x="128" y="310" class="v">il Cubo, qui accanto</text></g>
<g class="l" style="animation-delay:2.11s"><text x="26" y="332" class="k">Base</text><text x="128" y="332" class="v">Italia</text></g>
<g class="l" style="animation-delay:2.27s"><rect x="26" y="368" width="28" height="14" rx="3" fill="#E0457B"/><rect x="60" y="368" width="28" height="14" rx="3" fill="#F2994A"/><rect x="94" y="368" width="28" height="14" rx="3" fill="#F7F3EE"/><rect x="128" y="368" width="28" height="14" rx="3" fill="#3FC1E0"/><rect x="162" y="368" width="28" height="14" rx="3" fill="#C4CAD2"/><rect x="196" y="368" width="28" height="14" rx="3" fill="#6E7681"/></g>
</svg>
